<mxfile host="Electron" agent="Mozilla/5.0 (Windows NT 10.0; Win64; x64) AppleWebKit/537.36 (KHTML, like Gecko) draw.io/26.2.2 Chrome/134.0.6998.178 Electron/35.1.2 Safari/537.36" version="26.2.2">
  <diagram name="第 1 页" id="qVSBZHNPxjwTLYHKXLqL">
    <mxGraphModel dx="1098" dy="899" grid="1" gridSize="10" guides="1" tooltips="1" connect="1" arrows="1" fold="1" page="1" pageScale="1" pageWidth="827" pageHeight="1169" math="0" shadow="0">
      <root>
        <mxCell id="0" />
        <mxCell id="1" parent="0" />
        <mxCell id="VSc06C_e-clNtxRKE62N-16" value="" style="edgeStyle=orthogonalEdgeStyle;rounded=0;orthogonalLoop=1;jettySize=auto;html=1;" edge="1" parent="1" source="H-4t33IAZ4TCn_t1Oo5K-1" target="VSc06C_e-clNtxRKE62N-15">
          <mxGeometry relative="1" as="geometry">
            <Array as="points">
              <mxPoint x="160" y="200" />
            </Array>
          </mxGeometry>
        </mxCell>
        <mxCell id="VSc06C_e-clNtxRKE62N-22" style="edgeStyle=orthogonalEdgeStyle;rounded=0;orthogonalLoop=1;jettySize=auto;html=1;exitX=1;exitY=0.5;exitDx=0;exitDy=0;" edge="1" parent="1" source="H-4t33IAZ4TCn_t1Oo5K-1" target="VSc06C_e-clNtxRKE62N-20">
          <mxGeometry relative="1" as="geometry" />
        </mxCell>
        <mxCell id="VSc06C_e-clNtxRKE62N-25" value="" style="edgeStyle=orthogonalEdgeStyle;rounded=0;orthogonalLoop=1;jettySize=auto;html=1;entryX=0;entryY=0.5;entryDx=0;entryDy=0;" edge="1" parent="1" source="H-4t33IAZ4TCn_t1Oo5K-1" target="VSc06C_e-clNtxRKE62N-24">
          <mxGeometry relative="1" as="geometry">
            <Array as="points">
              <mxPoint x="160" y="600" />
            </Array>
          </mxGeometry>
        </mxCell>
        <mxCell id="H-4t33IAZ4TCn_t1Oo5K-1" value="SBEAM商城信息机构图" style="rounded=0;whiteSpace=wrap;html=1;" parent="1" vertex="1">
          <mxGeometry x="70" y="370" width="150" height="60" as="geometry" />
        </mxCell>
        <mxCell id="VSc06C_e-clNtxRKE62N-15" value="游戏详情页信息" style="rounded=0;whiteSpace=wrap;html=1;" vertex="1" parent="1">
          <mxGeometry x="300" y="170" width="120" height="60" as="geometry" />
        </mxCell>
        <mxCell id="VSc06C_e-clNtxRKE62N-20" value="购物车" style="whiteSpace=wrap;html=1;rounded=0;" vertex="1" parent="1">
          <mxGeometry x="300" y="370" width="120" height="60" as="geometry" />
        </mxCell>
        <mxCell id="VSc06C_e-clNtxRKE62N-24" value="结算页" style="rounded=0;whiteSpace=wrap;html=1;" vertex="1" parent="1">
          <mxGeometry x="300" y="570" width="120" height="60" as="geometry" />
        </mxCell>
        <mxCell id="VSc06C_e-clNtxRKE62N-39" value="游戏名" style="whiteSpace=wrap;html=1;shape=partialRectangle;top=0;left=0;bottom=1;right=0;points=[[0,1],[1,1]];fillColor=none;align=center;verticalAlign=bottom;routingCenterY=0.5;snapToPoint=1;recursiveResize=0;autosize=1;treeFolding=1;treeMoving=1;newEdgeStyle={&quot;edgeStyle&quot;:&quot;entityRelationEdgeStyle&quot;,&quot;startArrow&quot;:&quot;none&quot;,&quot;endArrow&quot;:&quot;none&quot;,&quot;segment&quot;:10,&quot;curved&quot;:1,&quot;sourcePerimeterSpacing&quot;:0,&quot;targetPerimeterSpacing&quot;:0};" vertex="1" collapsed="1" parent="1">
          <mxGeometry x="474" y="70" width="80" height="30" as="geometry" />
        </mxCell>
        <mxCell id="VSc06C_e-clNtxRKE62N-40" value="" style="edgeStyle=entityRelationEdgeStyle;startArrow=none;endArrow=none;segment=10;curved=1;sourcePerimeterSpacing=0;targetPerimeterSpacing=0;rounded=0;exitX=1;exitY=0.5;exitDx=0;exitDy=0;" edge="1" target="VSc06C_e-clNtxRKE62N-39" parent="1" source="VSc06C_e-clNtxRKE62N-15">
          <mxGeometry relative="1" as="geometry">
            <mxPoint x="440" y="200" as="sourcePoint" />
          </mxGeometry>
        </mxCell>
        <mxCell id="VSc06C_e-clNtxRKE62N-43" value="售价" style="whiteSpace=wrap;html=1;shape=partialRectangle;top=0;left=0;bottom=1;right=0;points=[[0,1],[1,1]];fillColor=none;align=center;verticalAlign=bottom;routingCenterY=0.5;snapToPoint=1;recursiveResize=0;autosize=1;treeFolding=1;treeMoving=1;newEdgeStyle={&quot;edgeStyle&quot;:&quot;entityRelationEdgeStyle&quot;,&quot;startArrow&quot;:&quot;none&quot;,&quot;endArrow&quot;:&quot;none&quot;,&quot;segment&quot;:10,&quot;curved&quot;:1,&quot;sourcePerimeterSpacing&quot;:0,&quot;targetPerimeterSpacing&quot;:0};" vertex="1" collapsed="1" parent="1">
          <mxGeometry x="484" y="100" width="60" height="30" as="geometry" />
        </mxCell>
        <mxCell id="VSc06C_e-clNtxRKE62N-44" value="" style="edgeStyle=entityRelationEdgeStyle;startArrow=none;endArrow=none;segment=10;curved=1;sourcePerimeterSpacing=0;targetPerimeterSpacing=0;rounded=0;exitX=1;exitY=0.5;exitDx=0;exitDy=0;" edge="1" target="VSc06C_e-clNtxRKE62N-43" parent="1" source="VSc06C_e-clNtxRKE62N-15">
          <mxGeometry relative="1" as="geometry">
            <mxPoint x="474" y="190" as="sourcePoint" />
          </mxGeometry>
        </mxCell>
        <mxCell id="VSc06C_e-clNtxRKE62N-45" value="促销标签" style="whiteSpace=wrap;html=1;shape=partialRectangle;top=0;left=0;bottom=1;right=0;points=[[0,1],[1,1]];fillColor=none;align=center;verticalAlign=bottom;routingCenterY=0.5;snapToPoint=1;recursiveResize=0;autosize=1;treeFolding=1;treeMoving=1;newEdgeStyle={&quot;edgeStyle&quot;:&quot;entityRelationEdgeStyle&quot;,&quot;startArrow&quot;:&quot;none&quot;,&quot;endArrow&quot;:&quot;none&quot;,&quot;segment&quot;:10,&quot;curved&quot;:1,&quot;sourcePerimeterSpacing&quot;:0,&quot;targetPerimeterSpacing&quot;:0};" vertex="1" collapsed="1" parent="1">
          <mxGeometry x="469" y="130" width="90" height="30" as="geometry" />
        </mxCell>
        <mxCell id="VSc06C_e-clNtxRKE62N-46" value="" style="edgeStyle=entityRelationEdgeStyle;startArrow=none;endArrow=none;segment=10;curved=1;sourcePerimeterSpacing=0;targetPerimeterSpacing=0;rounded=0;exitX=1;exitY=0.5;exitDx=0;exitDy=0;" edge="1" target="VSc06C_e-clNtxRKE62N-45" parent="1" source="VSc06C_e-clNtxRKE62N-15">
          <mxGeometry relative="1" as="geometry">
            <mxPoint x="430" y="220" as="sourcePoint" />
            <Array as="points">
              <mxPoint x="470" y="200" />
            </Array>
          </mxGeometry>
        </mxCell>
        <mxCell id="VSc06C_e-clNtxRKE62N-47" value="发售日期" style="whiteSpace=wrap;html=1;shape=partialRectangle;top=0;left=0;bottom=1;right=0;points=[[0,1],[1,1]];fillColor=none;align=center;verticalAlign=bottom;routingCenterY=0.5;snapToPoint=1;recursiveResize=0;autosize=1;treeFolding=1;treeMoving=1;newEdgeStyle={&quot;edgeStyle&quot;:&quot;entityRelationEdgeStyle&quot;,&quot;startArrow&quot;:&quot;none&quot;,&quot;endArrow&quot;:&quot;none&quot;,&quot;segment&quot;:10,&quot;curved&quot;:1,&quot;sourcePerimeterSpacing&quot;:0,&quot;targetPerimeterSpacing&quot;:0};" vertex="1" collapsed="1" parent="1">
          <mxGeometry x="469" y="160" width="90" height="30" as="geometry" />
        </mxCell>
        <mxCell id="VSc06C_e-clNtxRKE62N-48" value="" style="edgeStyle=entityRelationEdgeStyle;startArrow=none;endArrow=none;segment=10;curved=1;sourcePerimeterSpacing=0;targetPerimeterSpacing=0;rounded=0;exitX=1;exitY=0.5;exitDx=0;exitDy=0;" edge="1" target="VSc06C_e-clNtxRKE62N-47" parent="1" source="VSc06C_e-clNtxRKE62N-15">
          <mxGeometry relative="1" as="geometry">
            <mxPoint x="430" y="210" as="sourcePoint" />
            <Array as="points">
              <mxPoint x="470" y="220" />
            </Array>
          </mxGeometry>
        </mxCell>
        <mxCell id="VSc06C_e-clNtxRKE62N-49" value="剩余库存数量" style="whiteSpace=wrap;html=1;shape=partialRectangle;top=0;left=0;bottom=1;right=0;points=[[0,1],[1,1]];fillColor=none;align=center;verticalAlign=bottom;routingCenterY=0.5;snapToPoint=1;recursiveResize=0;autosize=1;treeFolding=1;treeMoving=1;newEdgeStyle={&quot;edgeStyle&quot;:&quot;entityRelationEdgeStyle&quot;,&quot;startArrow&quot;:&quot;none&quot;,&quot;endArrow&quot;:&quot;none&quot;,&quot;segment&quot;:10,&quot;curved&quot;:1,&quot;sourcePerimeterSpacing&quot;:0,&quot;targetPerimeterSpacing&quot;:0};" vertex="1" collapsed="1" parent="1">
          <mxGeometry x="459" y="190" width="110" height="30" as="geometry" />
        </mxCell>
        <mxCell id="VSc06C_e-clNtxRKE62N-50" value="" style="edgeStyle=entityRelationEdgeStyle;startArrow=none;endArrow=none;segment=10;curved=1;sourcePerimeterSpacing=0;targetPerimeterSpacing=0;rounded=0;exitX=1;exitY=0.5;exitDx=0;exitDy=0;" edge="1" target="VSc06C_e-clNtxRKE62N-49" parent="1" source="VSc06C_e-clNtxRKE62N-15">
          <mxGeometry relative="1" as="geometry">
            <mxPoint x="460" y="310" as="sourcePoint" />
          </mxGeometry>
        </mxCell>
        <mxCell id="VSc06C_e-clNtxRKE62N-51" value="评分数量" style="whiteSpace=wrap;html=1;shape=partialRectangle;top=0;left=0;bottom=1;right=0;points=[[0,1],[1,1]];fillColor=none;align=center;verticalAlign=bottom;routingCenterY=0.5;snapToPoint=1;recursiveResize=0;autosize=1;treeFolding=1;treeMoving=1;newEdgeStyle={&quot;edgeStyle&quot;:&quot;entityRelationEdgeStyle&quot;,&quot;startArrow&quot;:&quot;none&quot;,&quot;endArrow&quot;:&quot;none&quot;,&quot;segment&quot;:10,&quot;curved&quot;:1,&quot;sourcePerimeterSpacing&quot;:0,&quot;targetPerimeterSpacing&quot;:0};" vertex="1" collapsed="1" parent="1">
          <mxGeometry x="469" y="220" width="90" height="30" as="geometry" />
        </mxCell>
        <mxCell id="VSc06C_e-clNtxRKE62N-52" value="" style="edgeStyle=entityRelationEdgeStyle;startArrow=none;endArrow=none;segment=10;curved=1;sourcePerimeterSpacing=0;targetPerimeterSpacing=0;rounded=0;exitX=1;exitY=0.5;exitDx=0;exitDy=0;" edge="1" target="VSc06C_e-clNtxRKE62N-51" parent="1" source="VSc06C_e-clNtxRKE62N-15">
          <mxGeometry relative="1" as="geometry">
            <mxPoint x="450" y="310" as="sourcePoint" />
          </mxGeometry>
        </mxCell>
        <mxCell id="VSc06C_e-clNtxRKE62N-55" value="平均分" style="whiteSpace=wrap;html=1;shape=partialRectangle;top=0;left=0;bottom=1;right=0;points=[[0,1],[1,1]];fillColor=none;align=center;verticalAlign=bottom;routingCenterY=0.5;snapToPoint=1;recursiveResize=0;autosize=1;treeFolding=1;treeMoving=1;newEdgeStyle={&quot;edgeStyle&quot;:&quot;entityRelationEdgeStyle&quot;,&quot;startArrow&quot;:&quot;none&quot;,&quot;endArrow&quot;:&quot;none&quot;,&quot;segment&quot;:10,&quot;curved&quot;:1,&quot;sourcePerimeterSpacing&quot;:0,&quot;targetPerimeterSpacing&quot;:0};" vertex="1" collapsed="1" parent="1">
          <mxGeometry x="474" y="250" width="80" height="30" as="geometry" />
        </mxCell>
        <mxCell id="VSc06C_e-clNtxRKE62N-56" value="" style="edgeStyle=entityRelationEdgeStyle;startArrow=none;endArrow=none;segment=10;curved=1;sourcePerimeterSpacing=0;targetPerimeterSpacing=0;rounded=0;exitX=1;exitY=0.5;exitDx=0;exitDy=0;" edge="1" target="VSc06C_e-clNtxRKE62N-55" parent="1" source="VSc06C_e-clNtxRKE62N-15">
          <mxGeometry relative="1" as="geometry">
            <mxPoint x="444" y="340" as="sourcePoint" />
          </mxGeometry>
        </mxCell>
        <mxCell id="VSc06C_e-clNtxRKE62N-57" value="游戏封面" style="whiteSpace=wrap;html=1;shape=partialRectangle;top=0;left=0;bottom=1;right=0;points=[[0,1],[1,1]];fillColor=none;align=center;verticalAlign=bottom;routingCenterY=0.5;snapToPoint=1;recursiveResize=0;autosize=1;treeFolding=1;treeMoving=1;newEdgeStyle={&quot;edgeStyle&quot;:&quot;entityRelationEdgeStyle&quot;,&quot;startArrow&quot;:&quot;none&quot;,&quot;endArrow&quot;:&quot;none&quot;,&quot;segment&quot;:10,&quot;curved&quot;:1,&quot;sourcePerimeterSpacing&quot;:0,&quot;targetPerimeterSpacing&quot;:0};" vertex="1" parent="1">
          <mxGeometry x="469" y="310" width="90" height="30" as="geometry" />
        </mxCell>
        <mxCell id="VSc06C_e-clNtxRKE62N-58" value="" style="edgeStyle=entityRelationEdgeStyle;startArrow=none;endArrow=none;segment=10;curved=1;sourcePerimeterSpacing=0;targetPerimeterSpacing=0;rounded=0;exitX=1;exitY=0.5;exitDx=0;exitDy=0;" edge="1" target="VSc06C_e-clNtxRKE62N-57" parent="1" source="VSc06C_e-clNtxRKE62N-20">
          <mxGeometry relative="1" as="geometry">
            <mxPoint x="460" y="430" as="sourcePoint" />
          </mxGeometry>
        </mxCell>
        <mxCell id="VSc06C_e-clNtxRKE62N-60" value="名称" style="whiteSpace=wrap;html=1;shape=partialRectangle;top=0;left=0;bottom=1;right=0;points=[[0,1],[1,1]];fillColor=none;align=center;verticalAlign=bottom;routingCenterY=0.5;snapToPoint=1;recursiveResize=0;autosize=1;treeFolding=1;treeMoving=1;newEdgeStyle={&quot;edgeStyle&quot;:&quot;entityRelationEdgeStyle&quot;,&quot;startArrow&quot;:&quot;none&quot;,&quot;endArrow&quot;:&quot;none&quot;,&quot;segment&quot;:10,&quot;curved&quot;:1,&quot;sourcePerimeterSpacing&quot;:0,&quot;targetPerimeterSpacing&quot;:0};" vertex="1" collapsed="1" parent="1">
          <mxGeometry x="484" y="340" width="60" height="30" as="geometry" />
        </mxCell>
        <mxCell id="VSc06C_e-clNtxRKE62N-61" value="" style="edgeStyle=entityRelationEdgeStyle;startArrow=none;endArrow=none;segment=10;curved=1;sourcePerimeterSpacing=0;targetPerimeterSpacing=0;rounded=0;exitX=1;exitY=0.5;exitDx=0;exitDy=0;" edge="1" target="VSc06C_e-clNtxRKE62N-60" parent="1" source="VSc06C_e-clNtxRKE62N-20">
          <mxGeometry relative="1" as="geometry">
            <mxPoint x="440" y="400" as="sourcePoint" />
          </mxGeometry>
        </mxCell>
        <mxCell id="VSc06C_e-clNtxRKE62N-62" value="原价" style="whiteSpace=wrap;html=1;shape=partialRectangle;top=0;left=0;bottom=1;right=0;points=[[0,1],[1,1]];fillColor=none;align=center;verticalAlign=bottom;routingCenterY=0.5;snapToPoint=1;recursiveResize=0;autosize=1;treeFolding=1;treeMoving=1;newEdgeStyle={&quot;edgeStyle&quot;:&quot;entityRelationEdgeStyle&quot;,&quot;startArrow&quot;:&quot;none&quot;,&quot;endArrow&quot;:&quot;none&quot;,&quot;segment&quot;:10,&quot;curved&quot;:1,&quot;sourcePerimeterSpacing&quot;:0,&quot;targetPerimeterSpacing&quot;:0};" vertex="1" collapsed="1" parent="1">
          <mxGeometry x="484" y="370" width="60" height="30" as="geometry" />
        </mxCell>
        <mxCell id="VSc06C_e-clNtxRKE62N-63" value="" style="edgeStyle=entityRelationEdgeStyle;startArrow=none;endArrow=none;segment=10;curved=1;sourcePerimeterSpacing=0;targetPerimeterSpacing=0;rounded=0;exitX=1;exitY=0.5;exitDx=0;exitDy=0;" edge="1" target="VSc06C_e-clNtxRKE62N-62" parent="1" source="VSc06C_e-clNtxRKE62N-20">
          <mxGeometry relative="1" as="geometry">
            <mxPoint x="425" y="420" as="sourcePoint" />
          </mxGeometry>
        </mxCell>
        <mxCell id="VSc06C_e-clNtxRKE62N-64" value="折扣" style="whiteSpace=wrap;html=1;shape=partialRectangle;top=0;left=0;bottom=1;right=0;points=[[0,1],[1,1]];fillColor=none;align=center;verticalAlign=bottom;routingCenterY=0.5;snapToPoint=1;recursiveResize=0;autosize=1;treeFolding=1;treeMoving=1;newEdgeStyle={&quot;edgeStyle&quot;:&quot;entityRelationEdgeStyle&quot;,&quot;startArrow&quot;:&quot;none&quot;,&quot;endArrow&quot;:&quot;none&quot;,&quot;segment&quot;:10,&quot;curved&quot;:1,&quot;sourcePerimeterSpacing&quot;:0,&quot;targetPerimeterSpacing&quot;:0};" vertex="1" collapsed="1" parent="1">
          <mxGeometry x="484" y="400" width="60" height="30" as="geometry" />
        </mxCell>
        <mxCell id="VSc06C_e-clNtxRKE62N-65" value="" style="edgeStyle=entityRelationEdgeStyle;startArrow=none;endArrow=none;segment=10;curved=1;sourcePerimeterSpacing=0;targetPerimeterSpacing=0;rounded=0;exitX=1;exitY=0.5;exitDx=0;exitDy=0;" edge="1" target="VSc06C_e-clNtxRKE62N-64" parent="1" source="VSc06C_e-clNtxRKE62N-20">
          <mxGeometry relative="1" as="geometry">
            <mxPoint x="460" y="510" as="sourcePoint" />
          </mxGeometry>
        </mxCell>
        <mxCell id="VSc06C_e-clNtxRKE62N-66" value="最终价格" style="whiteSpace=wrap;html=1;shape=partialRectangle;top=0;left=0;bottom=1;right=0;points=[[0,1],[1,1]];fillColor=none;align=center;verticalAlign=bottom;routingCenterY=0.5;snapToPoint=1;recursiveResize=0;autosize=1;treeFolding=1;treeMoving=1;newEdgeStyle={&quot;edgeStyle&quot;:&quot;entityRelationEdgeStyle&quot;,&quot;startArrow&quot;:&quot;none&quot;,&quot;endArrow&quot;:&quot;none&quot;,&quot;segment&quot;:10,&quot;curved&quot;:1,&quot;sourcePerimeterSpacing&quot;:0,&quot;targetPerimeterSpacing&quot;:0};" vertex="1" collapsed="1" parent="1">
          <mxGeometry x="469" y="430" width="90" height="30" as="geometry" />
        </mxCell>
        <mxCell id="VSc06C_e-clNtxRKE62N-67" value="" style="edgeStyle=entityRelationEdgeStyle;startArrow=none;endArrow=none;segment=10;curved=1;sourcePerimeterSpacing=0;targetPerimeterSpacing=0;rounded=0;exitX=1;exitY=0.5;exitDx=0;exitDy=0;" edge="1" target="VSc06C_e-clNtxRKE62N-66" parent="1" source="VSc06C_e-clNtxRKE62N-20">
          <mxGeometry relative="1" as="geometry">
            <mxPoint x="470" y="540" as="sourcePoint" />
          </mxGeometry>
        </mxCell>
        <mxCell id="VSc06C_e-clNtxRKE62N-68" value="删除按钮" style="whiteSpace=wrap;html=1;shape=partialRectangle;top=0;left=0;bottom=1;right=0;points=[[0,1],[1,1]];fillColor=none;align=center;verticalAlign=bottom;routingCenterY=0.5;snapToPoint=1;recursiveResize=0;autosize=1;treeFolding=1;treeMoving=1;newEdgeStyle={&quot;edgeStyle&quot;:&quot;entityRelationEdgeStyle&quot;,&quot;startArrow&quot;:&quot;none&quot;,&quot;endArrow&quot;:&quot;none&quot;,&quot;segment&quot;:10,&quot;curved&quot;:1,&quot;sourcePerimeterSpacing&quot;:0,&quot;targetPerimeterSpacing&quot;:0};" vertex="1" collapsed="1" parent="1">
          <mxGeometry x="469" y="460" width="90" height="30" as="geometry" />
        </mxCell>
        <mxCell id="VSc06C_e-clNtxRKE62N-69" value="" style="edgeStyle=entityRelationEdgeStyle;startArrow=none;endArrow=none;segment=10;curved=1;sourcePerimeterSpacing=0;targetPerimeterSpacing=0;rounded=0;exitX=1;exitY=0.5;exitDx=0;exitDy=0;" edge="1" target="VSc06C_e-clNtxRKE62N-68" parent="1" source="VSc06C_e-clNtxRKE62N-20">
          <mxGeometry relative="1" as="geometry">
            <mxPoint x="460" y="605" as="sourcePoint" />
          </mxGeometry>
        </mxCell>
        <mxCell id="VSc06C_e-clNtxRKE62N-70" value="总价" style="whiteSpace=wrap;html=1;shape=partialRectangle;top=0;left=0;bottom=1;right=0;points=[[0,1],[1,1]];fillColor=none;align=center;verticalAlign=bottom;routingCenterY=0.5;snapToPoint=1;recursiveResize=0;autosize=1;treeFolding=1;treeMoving=1;newEdgeStyle={&quot;edgeStyle&quot;:&quot;entityRelationEdgeStyle&quot;,&quot;startArrow&quot;:&quot;none&quot;,&quot;endArrow&quot;:&quot;none&quot;,&quot;segment&quot;:10,&quot;curved&quot;:1,&quot;sourcePerimeterSpacing&quot;:0,&quot;targetPerimeterSpacing&quot;:0};" vertex="1" collapsed="1" parent="1">
          <mxGeometry x="484" y="530" width="60" height="30" as="geometry" />
        </mxCell>
        <mxCell id="VSc06C_e-clNtxRKE62N-71" value="" style="edgeStyle=entityRelationEdgeStyle;startArrow=none;endArrow=none;segment=10;curved=1;sourcePerimeterSpacing=0;targetPerimeterSpacing=0;rounded=0;exitX=1;exitY=0.5;exitDx=0;exitDy=0;" edge="1" target="VSc06C_e-clNtxRKE62N-70" parent="1" source="VSc06C_e-clNtxRKE62N-24">
          <mxGeometry relative="1" as="geometry">
            <mxPoint x="449" y="640" as="sourcePoint" />
          </mxGeometry>
        </mxCell>
        <mxCell id="VSc06C_e-clNtxRKE62N-72" value="应付金额" style="whiteSpace=wrap;html=1;shape=partialRectangle;top=0;left=0;bottom=1;right=0;points=[[0,1],[1,1]];fillColor=none;align=center;verticalAlign=bottom;routingCenterY=0.5;snapToPoint=1;recursiveResize=0;autosize=1;treeFolding=1;treeMoving=1;newEdgeStyle={&quot;edgeStyle&quot;:&quot;entityRelationEdgeStyle&quot;,&quot;startArrow&quot;:&quot;none&quot;,&quot;endArrow&quot;:&quot;none&quot;,&quot;segment&quot;:10,&quot;curved&quot;:1,&quot;sourcePerimeterSpacing&quot;:0,&quot;targetPerimeterSpacing&quot;:0};" vertex="1" collapsed="1" parent="1">
          <mxGeometry x="474" y="570" width="90" height="30" as="geometry" />
        </mxCell>
        <mxCell id="VSc06C_e-clNtxRKE62N-73" value="" style="edgeStyle=entityRelationEdgeStyle;startArrow=none;endArrow=none;segment=10;curved=1;sourcePerimeterSpacing=0;targetPerimeterSpacing=0;rounded=0;exitX=1;exitY=0.5;exitDx=0;exitDy=0;" edge="1" target="VSc06C_e-clNtxRKE62N-72" parent="1" source="VSc06C_e-clNtxRKE62N-24">
          <mxGeometry relative="1" as="geometry">
            <mxPoint x="470" y="740" as="sourcePoint" />
          </mxGeometry>
        </mxCell>
        <mxCell id="VSc06C_e-clNtxRKE62N-74" value="支付方式" style="whiteSpace=wrap;html=1;shape=partialRectangle;top=0;left=0;bottom=1;right=0;points=[[0,1],[1,1]];fillColor=none;align=center;verticalAlign=bottom;routingCenterY=0.5;snapToPoint=1;recursiveResize=0;autosize=1;treeFolding=1;treeMoving=1;newEdgeStyle={&quot;edgeStyle&quot;:&quot;entityRelationEdgeStyle&quot;,&quot;startArrow&quot;:&quot;none&quot;,&quot;endArrow&quot;:&quot;none&quot;,&quot;segment&quot;:10,&quot;curved&quot;:1,&quot;sourcePerimeterSpacing&quot;:0,&quot;targetPerimeterSpacing&quot;:0};" vertex="1" collapsed="1" parent="1">
          <mxGeometry x="469" y="610" width="90" height="30" as="geometry" />
        </mxCell>
        <mxCell id="VSc06C_e-clNtxRKE62N-75" value="" style="edgeStyle=entityRelationEdgeStyle;startArrow=none;endArrow=none;segment=10;curved=1;sourcePerimeterSpacing=0;targetPerimeterSpacing=0;rounded=0;exitX=1;exitY=0.5;exitDx=0;exitDy=0;" edge="1" target="VSc06C_e-clNtxRKE62N-74" parent="1" source="VSc06C_e-clNtxRKE62N-24">
          <mxGeometry relative="1" as="geometry">
            <mxPoint x="470" y="820" as="sourcePoint" />
          </mxGeometry>
        </mxCell>
      </root>
    </mxGraphModel>
  </diagram>
</mxfile>
